# xmcd
#
# Track frame offsets: 
#        150
#        18682
#        30462
#        45127
#        50842
#        68855
#        77605
#        86150
#        95577
#        119845
#        142065
#        159460
#
# Disc length: 2368 seconds
#
# Revision: 9
# Processed by: cddbd v1.5.2PL0 Copyright (c) Steve Scherf et al.
# Submitted via: ExactAudioCopyFreeDBPlugin 1.0
#
DISCID=a3093e0c
DTITLE=George Winston - December
DYEAR=1982
DGENRE=Newage
TTITLE0=Thanksgiving
TTITLE1=Jesus, Jesus, Rest Your Head
TTITLE2=Joy
TTITLE3=Prelude
TTITLE4=Carol of the Bells
TTITLE5=NIght Part One - Snow
TTITLE6=NIght Part Two - MIdnight
TTITLE7=NIght Part Three - Minstrels
TTITLE8=Variations on the Kanon by Johann Pachelbel
TTITLE9=The Holly and the Ivy
TTITLE10=Some Children See Him
TTITLE11=Peace
EXTD=YEAR: 1982
EXTT0=
EXTT1=
EXTT2=
EXTT3=
EXTT4=
EXTT5=
EXTT6=
EXTT7=
EXTT8=
EXTT9=
EXTT10=
EXTT11=
PLAYORDER=
